<svg width="106" height="24" viewBox="0 0 106 24" fill="none" xmlns="http://www.w3.org/2000/svg">
<g clip-path="url(#clip0_19_795)">
<path d="M34.9361 5.28204C34.7704 5.28204 34.6231 5.38495 34.5645 5.53933L28.7325 21.0391C28.6353 21.2978 28.8268 21.5752 29.1041 21.5752H30.616C30.7789 21.5752 30.9247 21.4751 30.9847 21.325L32.3266 17.934C32.3423 17.8954 32.3795 17.8696 32.4209 17.8696H39.3019C39.3448 17.8696 39.3834 17.8968 39.3977 17.9368L40.6038 21.3121C40.6595 21.4694 40.8096 21.5752 40.9768 21.5752H42.6518C42.9275 21.5752 43.1191 21.3007 43.0246 21.0419L37.3327 5.54222C37.2755 5.38637 37.1269 5.28204 36.9597 5.28204H34.9361ZM38.5145 15.8925H33.194C33.124 15.8925 33.074 15.8225 33.0998 15.7553L35.8036 8.56583C35.8364 8.47718 35.9607 8.4786 35.9936 8.56725L38.6103 15.7567C38.6345 15.8224 38.586 15.8925 38.5145 15.8925Z" fill="black"/>
<path d="M47.7628 10.672C47.4166 10.9407 47.1869 11.2167 46.9511 11.677V10.6334C46.9511 10.4146 46.7737 10.236 46.5538 10.236H45.2718C45.0532 10.236 44.8745 10.4132 44.8745 10.6334V21.1767C44.8745 21.3954 45.0515 21.5741 45.2718 21.5741H46.5538C46.7724 21.5741 46.9511 21.3968 46.9511 21.1767V15.82C46.9511 14.592 47.1095 13.9486 47.5781 13.2667C48.1111 12.479 48.9302 12.0458 49.8809 12.0458C50.0006 12.0458 50.1306 12.053 50.2406 12.0616C50.3848 12.073 50.5095 11.9586 50.5095 11.8128V10.2202C50.5095 10.083 50.3976 9.97147 50.2607 9.97147H49.953C49.1285 9.97147 48.3297 10.226 47.7628 10.672Z" fill="black"/>
<path d="M57.2169 11.9038C58.1459 11.9038 59.0072 12.2312 59.7791 12.8788C59.8777 12.9603 60.022 12.9517 60.1118 12.8616L61.1154 11.8509C61.2165 11.7494 61.2096 11.585 61.1041 11.4892C59.972 10.457 58.7142 9.97528 57.1693 9.97528C53.8397 9.97528 51.515 12.4299 51.515 15.9453C51.515 19.3621 53.8524 21.8424 57.0736 21.8424C58.6244 21.8424 59.8277 21.3906 61.0535 20.3413C61.1595 20.2512 61.1669 20.0897 61.0742 19.9868L60.1138 18.9274C60.0235 18.8274 59.8694 18.8174 59.7673 18.906C58.9659 19.6094 58.1842 19.9124 57.1924 19.9124C55.0989 19.9124 53.6355 18.2513 53.6355 15.8738C53.637 13.535 55.1087 11.9038 57.2169 11.9038Z" fill="black"/>
<path d="M71.6511 11.8314C70.5935 10.5476 69.3878 9.97147 67.7826 9.97147C64.6585 9.97147 62.3923 12.4818 62.3923 15.9415C62.3923 19.3583 64.6389 21.8386 67.734 21.8386C69.352 21.8386 70.5719 21.1767 71.6511 19.7014V21.1781C71.6511 21.3968 71.8282 21.5756 72.0481 21.5756H73.3304C73.5488 21.5756 73.7274 21.3983 73.7274 21.1781V10.6334C73.7274 10.4146 73.5502 10.236 73.3304 10.236H72.0481C71.8297 10.236 71.6511 10.4132 71.6511 10.6334V11.8314ZM71.6766 15.7971C71.6766 18.1173 70.0262 20.0044 67.9985 20.0044C66.0395 20.0044 64.5613 18.2789 64.5613 15.9887C64.5613 14.9479 64.8857 13.9043 65.4516 13.1266L65.453 13.1252C66.0782 12.246 66.8781 11.8542 68.0471 11.8542C70.1847 11.8542 71.6766 13.4754 71.6766 15.7971Z" fill="black"/>
<path d="M85.1592 11.7066C84.113 10.5243 82.8842 9.97103 81.3148 9.97103C78.2692 9.97103 75.9726 12.5486 75.9726 15.9654C75.9726 19.4235 78.1691 21.8381 81.3148 21.8381C82.92 21.8381 84.087 21.2591 85.1592 19.9153V21.1776C85.1592 21.3964 85.3359 21.5751 85.5562 21.5751H86.8381C87.0564 21.5751 87.2351 21.3978 87.2351 21.1776V5.6765C87.2351 5.45776 87.0584 5.27908 86.8381 5.27908H85.5562C85.3379 5.27908 85.1592 5.45634 85.1592 5.6765V11.7066ZM85.1592 15.941C85.1592 18.2956 83.6531 20.004 81.5793 20.004C79.5555 20.004 78.1421 18.3528 78.1421 15.9882C78.1421 13.515 79.5717 11.8538 81.699 11.8538C83.767 11.8538 85.1592 13.4964 85.1592 15.941Z" fill="black"/>
<path d="M90.6771 6.13562C90.3743 6.2757 90.1456 6.55018 90.0603 6.87325C89.81 7.8139 90.42 8.59591 91.2802 8.59591C92.0109 8.59591 92.5822 8.03406 92.5822 7.31784C92.5822 6.36719 91.6645 5.67952 90.6771 6.13562Z" fill="black"/>
<path d="M90.6403 21.638H91.9226C92.141 21.638 92.3196 21.4607 92.3196 21.2406V10.6973C92.3196 10.4785 92.1425 10.2998 91.9226 10.2998H90.6403C90.4219 10.2998 90.2433 10.4771 90.2433 10.6973V21.2406C90.2443 21.4593 90.4219 21.638 90.6403 21.638Z" fill="black"/>
<path d="M103.758 10.6977V11.8957C102.702 10.6119 101.494 10.0358 99.8893 10.0358C96.7652 10.0358 94.4985 12.5462 94.4985 16.0057C94.4985 19.4225 96.7456 21.9028 99.8407 21.9028C101.459 21.9028 102.679 21.241 103.758 19.7656V21.2424C103.758 21.4611 103.935 21.6398 104.155 21.6398H105.437C105.655 21.6398 105.834 21.4626 105.834 21.2424V10.6977C105.834 10.479 105.657 10.3003 105.437 10.3003H104.155C103.936 10.3003 103.758 10.4775 103.758 10.6977ZM103.783 15.8614C103.783 18.1816 102.133 20.0687 100.105 20.0687C98.1462 20.0687 96.6681 18.3431 96.6681 16.053C96.6681 15.0122 96.9929 13.9686 97.5583 13.1909L97.5602 13.1895C98.1845 12.3102 98.9849 11.9185 100.154 11.9185C102.291 11.9185 103.783 13.5397 103.783 15.8614Z" fill="black"/>
<path d="M11.8587 0C5.30996 0 0 5.31193 0 11.8631C0 15.6919 1.8165 19.0993 4.63357 21.2689C4.75195 21.3591 4.92105 21.3126 4.98023 21.1773L10.534 8.34431C10.5707 8.25972 10.6538 8.20472 10.7468 8.20472H12.9988C13.0918 8.20472 13.1749 8.25972 13.2116 8.34431L18.7498 21.1688C18.809 21.3055 18.9795 21.3521 19.0965 21.2604C19.6405 20.8417 20.145 20.3765 20.61 19.8704C22.5364 17.7572 23.716 14.9475 23.716 11.8631C23.7174 5.31193 18.406 0 11.8587 0ZM19.5094 16.425C19.415 16.5829 19.1853 16.5631 19.112 16.394C18.833 15.7497 18.5258 15.0392 18.2017 14.2878C18.1552 14.1807 18.1523 14.0594 18.189 13.9466C18.4045 13.2911 18.53 12.5904 18.53 11.8616C18.53 8.17656 15.5438 5.18929 11.8601 5.18929C8.17638 5.18929 5.18738 8.17798 5.18738 11.8631C5.18738 12.6032 5.31561 13.3137 5.53825 13.9804C5.57634 14.0932 5.57212 14.2145 5.52559 14.3231C5.20146 15.0716 4.89709 15.7807 4.61947 16.4222C4.5462 16.5899 4.31788 16.6111 4.22347 16.4532C3.41739 15.1125 2.95375 13.542 2.95375 11.8631C2.95375 6.943 6.94045 2.95483 11.8587 2.95483C16.7769 2.95483 20.7636 6.943 20.7636 11.8631C20.7636 13.5308 20.3056 15.0913 19.5094 16.425Z" fill="#1DA590"/>
<path d="M15.799 20.0158C15.768 19.9425 15.682 19.9115 15.6102 19.9453C14.473 20.4768 13.2032 20.7729 11.8616 20.7729C10.5271 20.7729 9.26158 20.4768 8.12434 19.9496C8.05245 19.9157 7.96647 19.9482 7.9355 20.0201L6.90814 22.3941C6.85887 22.5082 6.90814 22.6422 7.02233 22.6943C8.50059 23.3583 10.1367 23.7277 11.8616 23.7277C13.5908 23.7277 15.2268 23.3555 16.7079 22.6901C16.8221 22.6394 16.8728 22.5054 16.8221 22.3898C16.6037 21.8824 16.2387 21.0365 15.799 20.0158Z" fill="#1DA590"/>
<path d="M11.8582 18.5354C12.8869 18.5354 13.8564 18.2916 14.7274 17.8743C14.7936 17.8418 14.8218 17.7644 14.7936 17.6966L11.9498 11.1173C11.9173 11.0426 11.8117 11.0426 11.7792 11.1173L8.93259 17.6995C8.903 17.7671 8.93121 17.846 8.99884 17.8771C9.86691 18.2944 10.8337 18.5354 11.8582 18.5354Z" fill="#1DA590"/>
</g>
<defs>
<clipPath id="clip0_19_795">
<rect width="106" height="24" fill="white"/>
</clipPath>
</defs>
</svg>
