<svg width="24" height="24" viewBox="0 0 24 24" fill="none" xmlns="http://www.w3.org/2000/svg">
<path d="M11.707 5.293C11.8945 5.48053 11.9998 5.73484 11.9998 6C11.9998 6.26516 11.8945 6.51947 11.707 6.707L7.41403 11H19C19.2652 11 19.5196 11.1054 19.7071 11.2929C19.8947 11.4804 20 11.7348 20 12C20 12.2652 19.8947 12.5196 19.7071 12.7071C19.5196 12.8946 19.2652 13 19 13H7.41403L11.707 17.293C11.8892 17.4816 11.99 17.7342 11.9877 17.9964C11.9854 18.2586 11.8803 18.5094 11.6948 18.6948C11.5094 18.8802 11.2586 18.9854 10.9964 18.9877C10.7342 18.99 10.4816 18.8892 10.293 18.707L4.29303 12.707C4.10556 12.5195 4.00024 12.2652 4.00024 12C4.00024 11.7348 4.10556 11.4805 4.29303 11.293L10.293 5.293C10.4806 5.10553 10.7349 5.00021 11 5.00021C11.2652 5.00021 11.5195 5.10553 11.707 5.293Z" fill="black"/>
</svg>
