<svg width="25" height="24" viewBox="0 0 25 24" fill="none" xmlns="http://www.w3.org/2000/svg">
<path d="M12.793 5.293C12.9805 5.10553 13.2348 5.00021 13.5 5.00021C13.7652 5.00021 14.0195 5.10553 14.207 5.293L20.207 11.293C20.3945 11.4805 20.4998 11.7348 20.4998 12C20.4998 12.2652 20.3945 12.5195 20.207 12.707L14.207 18.707C14.0184 18.8892 13.7658 18.99 13.5036 18.9877C13.2414 18.9854 12.9906 18.8802 12.8052 18.6948C12.6198 18.5094 12.5146 18.2586 12.5123 17.9964C12.51 17.7342 12.6108 17.4816 12.793 17.293L18.086 12L12.793 6.707C12.6055 6.51947 12.5002 6.26516 12.5002 6C12.5002 5.73484 12.6055 5.48053 12.793 5.293ZM6.793 5.293C6.98053 5.10553 7.23484 5.00021 7.5 5.00021C7.76516 5.00021 8.01947 5.10553 8.207 5.293L14.207 11.293C14.3945 11.4805 14.4998 11.7348 14.4998 12C14.4998 12.2652 14.3945 12.5195 14.207 12.707L8.207 18.707C8.0184 18.8892 7.7658 18.99 7.5036 18.9877C7.2414 18.9854 6.99059 18.8802 6.80518 18.6948C6.61977 18.5094 6.5146 18.2586 6.51233 17.9964C6.51005 17.7342 6.61084 17.4816 6.793 17.293L12.086 12L6.793 6.707C6.60553 6.51947 6.50021 6.26516 6.50021 6C6.50021 5.73484 6.60553 5.48053 6.793 5.293Z" fill="white"/>
</svg>
